<?xml version="1.0" encoding="UTF-8"?>
<svg id="_レイヤー_2" data-name="レイヤー 2" xmlns="http://www.w3.org/2000/svg" width="1151.38" height="247.8" viewBox="0 0 1151.38 247.8">
  <defs>
    <style>
      .cls-1 {
        font-family: Menlo-Regular, Menlo;
        font-size: 200px;
        letter-spacing: .1em;
      }
    </style>
  </defs>
  <g id="_レイヤー_1-2" data-name="レイヤー 1">
    <g>
      <text class="cls-1" transform="translate(0 172.9)"><tspan x="0" y="0">Chairs</tspan></text>
      <g>
        <rect x="1069.52" y="120.87" width="9.76" height="45.5" transform="translate(73.78 -273.18) rotate(15)"/>
        <path d="M1090.85,41.02l-29.64,53.15-11.95-3.2-26.24-2.96-2.78,10.36,2.74,1.17-2.85-.76-13.46,50.25,9.43,2.53,13.21-49.31,15.19,6.48-17.03,63.55,11.64,3.12,17.03-63.55,44.98,12.05-17.03,63.55,11.64,3.12,19.14-71.44,36.51-68.92-60.53-9.2ZM1105.59,106.07l-34.92-9.36,25.32-45.39,35.42,6.12-25.81,48.63Z"/>
      </g>
      <g>
        <rect x="919.45" y="120.87" width="9.76" height="45.5" transform="translate(1854.33 43.12) rotate(165)"/>
        <path d="M847.34,50.21l36.51,68.92,19.14,71.44,11.64-3.12-17.03-63.55,44.98-12.05,17.03,63.55,11.64-3.12-17.03-63.55,15.19-6.48,13.21,49.31,9.43-2.53-13.46-50.25-2.85.76,2.74-1.17-2.78-10.36-26.24,2.96-11.95,3.2-29.64-53.15-60.53,9.2ZM867.32,57.43l35.42-6.12,25.32,45.39-34.92,9.36-25.81-48.63Z"/>
      </g>
    </g>
  </g>
</svg>